<svg xmlns="http://www.w3.org/2000/svg" width="1405" height="747" viewBox="0 0 1405 747">
<g>
<path d="M 534.91 554.33 C529.78,557.32 526.00,557.81 526.00,555.48 C526.00,554.65 527.32,551.61 528.93,548.73 C530.54,545.86 533.25,539.97 534.95,535.67 C538.83,525.83 541.05,522.38 563.73,490.75 L 582.20 465.00 L 603.96 465.00 L 612.98 451.53 C617.94,444.12 622.00,437.82 622.00,437.53 C622.00,437.24 617.72,437.00 612.50,437.00 C607.28,437.00 603.00,436.74 603.00,436.42 C603.00,435.73 607.32,430.04 629.55,401.50 C638.98,389.40 648.29,377.25 650.24,374.50 L 653.79 369.50 L 642.28 355.00 C635.96,347.02 627.89,336.82 624.37,332.33 L 617.96 324.16 L 625.46 314.33 L 632.96 304.50 L 617.46 304.22 L 601.96 303.95 L 590.94 290.22 C580.83,277.62 579.97,276.22 580.43,273.09 C581.31,267.04 582.53,267.10 589.01,273.51 C595.38,279.82 596.32,279.45 593.57,271.74 C592.83,269.67 592.59,267.75 593.03,267.48 C593.47,267.21 596.91,267.43 600.67,267.97 C604.43,268.52 609.87,268.97 612.76,268.98 C617.69,269.00 618.37,269.32 623.77,274.25 C637.05,286.39 645.00,292.32 645.00,290.09 C645.00,289.56 644.59,288.87 644.09,288.56 C643.59,288.25 641.23,285.64 638.84,282.75 L 634.50 277.51 L 638.50 280.67 C642.81,284.09 669.10,310.60 680.72,323.27 L 687.86 331.05 L 733.64 276.77 C820.02,174.39 839.76,151.48 851.62,139.85 C858.15,133.44 865.07,126.91 867.00,125.35 C870.41,122.56 870.46,122.56 868.91,125.00 C863.19,134.04 844.73,165.57 843.94,167.65 C843.22,169.55 843.29,170.07 844.24,169.77 C845.28,169.43 868.60,144.60 903.21,107.00 C906.50,103.43 908.97,100.95 908.69,101.50 C908.41,102.05 901.61,112.14 893.59,123.91 C885.56,135.69 879.23,145.56 879.52,145.85 C879.81,146.14 882.29,144.17 885.02,141.48 C887.76,138.78 890.00,136.90 890.00,137.29 C890.00,137.68 866.04,169.84 836.75,208.75 C807.46,247.66 768.82,299.02 750.87,322.89 L 718.23 366.27 L 729.76 379.82 C742.84,395.21 754.83,410.21 770.26,430.50 C781.35,445.09 787.74,452.30 794.50,457.86 C798.61,461.24 797.67,461.17 792.69,457.73 C788.88,455.08 788.03,456.38 791.32,459.82 C792.80,461.35 794.00,463.05 794.00,463.59 C794.00,464.13 791.64,466.90 788.75,469.74 L 783.50 474.91 L 777.50 472.46 C771.46,469.99 767.98,469.36 768.02,470.75 C768.03,471.16 768.92,472.62 770.00,474.00 C773.60,478.60 772.79,479.31 764.61,478.79 C758.99,478.43 756.12,477.67 752.69,475.66 C750.20,474.20 740.81,465.26 731.83,455.78 C710.11,432.85 688.72,410.99 688.05,411.02 C687.75,411.04 685.25,414.06 682.50,417.73 C673.47,429.79 634.50,478.23 623.55,491.00 C602.58,515.45 582.14,536.00 578.79,536.00 C578.34,536.00 579.55,533.70 581.48,530.89 C583.42,528.08 585.00,525.15 585.00,524.39 C585.00,522.41 582.69,522.67 579.77,524.97 C578.39,526.05 577.02,526.69 576.72,526.38 C575.55,525.21 566.85,530.08 560.54,535.43 C552.18,542.52 540.85,550.88 534.91,554.33 Z" fill="rgb(254,32,0)"/>
<path d="M 0.00 373.50 L 0.00 0.00 L 702.50 0.00 L 1405.00 0.00 L 1405.00 373.50 L 1405.00 747.00 L 702.50 747.00 L 0.00 747.00 L 0.00 373.50 ZM 534.91 554.33 C540.85,550.88 552.18,542.52 560.54,535.43 C566.85,530.08 575.55,525.21 576.72,526.38 C577.02,526.69 578.39,526.05 579.77,524.97 C582.69,522.67 585.00,522.41 585.00,524.39 C585.00,525.15 583.42,528.08 581.48,530.89 C579.55,533.70 578.34,536.00 578.79,536.00 C582.14,536.00 602.58,515.45 623.55,491.00 C634.50,478.23 673.47,429.79 682.50,417.73 C685.25,414.06 687.75,411.04 688.05,411.02 C688.72,410.99 710.11,432.85 731.83,455.78 C740.81,465.26 750.20,474.20 752.69,475.66 C756.12,477.67 758.99,478.43 764.61,478.79 C772.79,479.31 773.60,478.60 770.00,474.00 C768.92,472.62 768.03,471.16 768.02,470.75 C767.98,469.36 771.46,469.99 777.50,472.46 L 783.50 474.91 L 788.75 469.74 C791.64,466.90 794.00,464.13 794.00,463.59 C794.00,463.05 792.80,461.35 791.32,459.82 C788.03,456.38 788.88,455.08 792.69,457.73 C797.67,461.17 798.61,461.24 794.50,457.86 C787.74,452.30 781.35,445.09 770.26,430.50 C754.83,410.21 742.84,395.21 729.76,379.82 L 718.23 366.27 L 750.87 322.89 C768.82,299.02 807.46,247.66 836.75,208.75 C866.04,169.84 890.00,137.68 890.00,137.29 C890.00,136.90 887.76,138.78 885.02,141.48 C882.29,144.17 879.81,146.14 879.52,145.85 C879.23,145.56 885.56,135.69 893.59,123.91 C901.61,112.14 908.41,102.05 908.69,101.50 C908.97,100.95 906.50,103.43 903.21,107.00 C868.60,144.60 845.28,169.43 844.24,169.77 C843.29,170.07 843.22,169.55 843.94,167.65 C844.73,165.57 863.19,134.04 868.91,125.00 C870.46,122.56 870.41,122.56 867.00,125.35 C865.07,126.91 858.15,133.44 851.62,139.85 C839.76,151.48 820.02,174.39 733.64,276.77 L 687.86 331.05 L 680.72 323.27 C669.10,310.60 642.81,284.09 638.50,280.67 L 634.50 277.51 L 638.84 282.75 C641.23,285.64 643.59,288.25 644.09,288.56 C644.59,288.87 645.00,289.56 645.00,290.09 C645.00,292.32 637.05,286.39 623.77,274.25 C618.37,269.32 617.69,269.00 612.76,268.98 C609.87,268.97 604.43,268.52 600.67,267.97 C596.91,267.43 593.47,267.21 593.03,267.48 C592.59,267.75 592.83,269.67 593.57,271.74 C596.32,279.45 595.38,279.82 589.01,273.51 C582.53,267.10 581.31,267.04 580.43,273.09 C579.97,276.22 580.83,277.62 590.94,290.22 L 601.96 303.95 L 617.46 304.22 L 632.96 304.50 L 625.46 314.33 L 617.96 324.16 L 624.37 332.33 C627.89,336.82 635.96,347.02 642.28,355.00 L 653.79 369.50 L 650.24 374.50 C648.29,377.25 638.98,389.40 629.55,401.50 C607.32,430.04 603.00,435.73 603.00,436.42 C603.00,436.74 607.28,437.00 612.50,437.00 C617.72,437.00 622.00,437.24 622.00,437.53 C622.00,437.82 617.94,444.12 612.98,451.53 L 603.96 465.00 L 593.08 465.00 L 582.20 465.00 L 563.73 490.75 C541.05,522.38 538.83,525.83 534.95,535.67 C533.25,539.97 530.54,545.86 528.93,548.73 C527.32,551.61 526.00,554.65 526.00,555.48 C526.00,557.81 529.78,557.32 534.91,554.33 Z" fill="rgb(254,254,254)"/>
</g>
</svg>