<svg xmlns="http://www.w3.org/2000/svg" width="1405" height="747" viewBox="0 0 1405 747">
<g>
<path d="M 422.00 425.50 C422.00,492.33 421.66,547.00 421.24,547.00 C420.83,547.00 410.70,536.91 398.74,524.58 L 377.00 502.16 L 377.00 400.00 L 269.03 400.00 L 268.50 465.50 L 224.50 465.50 L 224.24 384.75 L 223.99 304.00 L 268.97 304.00 L 269.50 371.50 L 376.50 371.50 L 377.03 304.00 L 422.00 304.00 ZM 965.71 452.31 L 986.03 480.12 L 985.76 513.81 L 985.50 547.50 L 981.42 542.00 C972.15,529.53 945.14,492.03 903.98,434.50 C849.23,357.99 835.13,338.55 834.22,338.30 C833.82,338.20 829.00,344.45 823.50,352.21 C818.00,359.96 807.65,374.27 800.50,384.01 C793.35,393.74 783.45,407.37 778.50,414.30 C773.55,421.23 769.02,426.93 768.44,426.95 C767.86,426.98 765.32,424.19 762.79,420.75 C760.27,417.31 754.81,410.25 750.66,405.06 C746.51,399.87 743.40,395.14 743.75,394.56 C744.48,393.34 800.56,315.89 805.88,308.75 L 809.43 304.00 L 858.79 304.00 L 867.07 315.75 C878.19,331.54 940.46,417.73 965.71,452.31 ZM 1080.00 514.19 C1080.00,532.79 1079.89,548.00 1079.75,547.99 C1079.26,547.98 1057.94,518.61 1019.14,464.50 C997.45,434.25 976.43,405.00 972.43,399.50 L 965.16 389.50 L 992.83 388.93 C1019.39,388.38 1020.83,388.25 1028.66,385.66 C1038.00,382.58 1045.00,378.20 1049.43,372.66 C1052.22,369.16 1052.50,368.15 1052.50,361.58 C1052.50,355.36 1052.11,353.77 1049.74,350.18 C1046.35,345.05 1039.29,339.79 1032.11,337.03 C1020.69,332.64 1012.43,332.00 966.62,331.96 L 923.50 331.91 L 914.00 318.88 C908.78,311.72 904.34,305.41 904.15,304.87 C903.92,304.23 925.26,304.02 965.15,304.26 L 1026.50 304.63 L 1037.13 307.23 C1065.12,314.10 1085.08,327.26 1093.58,344.47 C1104.43,366.42 1094.07,389.51 1067.17,403.34 C1058.61,407.73 1046.22,412.14 1038.48,413.54 C1036.29,413.94 1034.20,414.43 1033.83,414.64 C1033.46,414.85 1043.69,429.73 1056.58,447.70 L 1080.00 480.38 ZM 587.48 465.34 C578.24,465.70 547.79,466.00 519.81,466.00 C480.03,466.00 468.83,465.73 468.46,464.75 C468.19,464.06 468.10,442.80 468.24,417.50 C468.48,374.42 468.61,371.51 470.25,371.58 C471.21,371.63 503.29,371.74 541.52,371.83 L 611.05 372.00 L 600.36 386.00 L 589.67 400.00 L 513.00 400.00 L 513.00 436.98 L 567.56 437.24 L 622.12 437.50 L 604.28 464.67 ZM 620.00 321.74 L 612.50 331.90 L 540.25 331.95 L 468.00 332.00 L 468.00 304.00 L 633.17 304.00 L 630.34 307.79 C628.78,309.88 624.12,316.15 620.00,321.74 ZM 1021.02 628.15 C1016.89,630.34 1007.98,630.57 1003.45,628.59 C993.58,624.29 990.75,609.05 998.40,601.40 C1006.48,593.32 1022.94,595.04 1027.39,604.42 C1028.31,606.35 1029.00,610.36 1029.00,613.75 C1029.00,620.75 1026.52,625.22 1021.02,628.15 ZM 940.96 628.40 C936.94,630.01 921.04,630.71 919.67,629.33 C919.30,628.97 919.00,621.50 919.00,612.75 L 919.00 596.83 L 930.44 597.16 C941.54,597.49 941.96,597.59 944.95,600.45 C953.03,608.20 950.70,624.50 940.96,628.40 ZM 739.97 465.25 C739.98,465.66 729.38,466.00 716.39,466.00 C696.16,466.00 692.87,465.79 693.34,464.55 C693.78,463.42 710.78,439.31 712.77,437.00 C713.26,436.43 739.91,464.11 739.97,465.25 ZM 1070.02 628.49 C1066.16,630.49 1056.40,630.40 1052.20,628.33 C1049.17,626.83 1046.00,622.60 1046.00,620.05 C1046.00,618.10 1052.85,618.85 1053.96,620.92 C1055.55,623.89 1061.31,625.44 1064.72,623.80 C1068.42,622.03 1068.58,617.97 1065.00,616.96 C1063.62,616.58 1059.93,615.51 1056.79,614.59 C1047.34,611.83 1044.31,605.53 1049.80,600.04 C1056.85,593.00 1074.00,596.13 1074.00,604.45 C1074.00,606.58 1073.53,607.00 1071.18,607.00 C1069.42,607.00 1067.54,606.06 1066.19,604.50 C1063.73,601.67 1058.59,601.11 1055.54,603.35 C1052.86,605.30 1054.34,606.76 1060.80,608.55 C1072.69,611.85 1075.00,613.67 1075.00,619.79 C1075.00,624.18 1073.59,626.64 1070.02,628.49 ZM 802.02 628.49 C798.16,630.49 788.40,630.40 784.20,628.33 C781.17,626.83 778.00,622.60 778.00,620.05 C778.00,617.92 784.23,618.95 786.55,621.46 C789.39,624.52 792.76,625.42 796.31,624.07 C799.62,622.81 800.78,620.32 798.89,618.55 C798.12,617.83 794.27,616.29 790.32,615.12 C779.31,611.85 775.95,605.90 781.80,600.04 C788.83,593.02 806.00,596.28 806.00,604.64 C806.00,607.99 801.15,607.91 798.19,604.50 C795.73,601.67 790.59,601.11 787.54,603.35 C784.86,605.30 786.34,606.76 792.80,608.55 C804.69,611.85 807.00,613.67 807.00,619.79 C807.00,624.18 805.59,626.64 802.02,628.49 ZM 895.75 626.71 C893.34,629.12 892.09,629.50 885.75,629.78 C879.80,630.05 877.91,629.74 875.23,628.05 C870.70,625.22 870.00,622.65 870.00,608.93 L 870.00 597.00 L 876.83 597.00 L 877.17 609.08 C877.46,619.79 877.73,621.33 879.50,622.63 C882.77,625.01 885.83,625.34 888.51,623.59 C890.94,621.99 891.00,621.67 891.00,609.48 L 891.00 597.00 L 899.15 597.00 L 898.83 610.48 C898.51,623.66 898.44,624.02 895.75,626.71 ZM 841.78 616.30 L 841.50 629.50 L 838.46 629.80 C836.79,629.96 835.11,629.77 834.71,629.38 C834.32,628.99 834.00,622.92 834.00,615.89 L 834.00 603.11 L 829.25 602.80 C824.90,602.53 824.47,602.27 824.18,599.75 L 823.87 597.00 L 853.13 597.00 L 852.82 599.75 C852.52,602.31 852.14,602.52 847.28,602.80 L 842.06 603.10 ZM 1007.31 623.05 C1011.29,625.48 1012.70,625.48 1016.65,623.07 C1020.42,620.77 1022.48,615.39 1021.53,610.32 C1019.19,597.83 1002.00,599.73 1002.00,612.49 C1002.00,618.18 1003.18,620.53 1007.31,623.05 ZM 927.00 603.00 L 927.00 624.00 L 931.89 624.00 C938.46,624.00 941.04,621.84 941.72,615.77 C942.80,606.25 940.43,603.00 932.43,603.00 ZM 976.05 597.00 L 975.50 629.50 L 972.46 629.80 C970.79,629.96 969.11,629.77 968.71,629.38 C968.32,628.99 968.00,621.54 968.00,612.83 L 968.00 597.00 Z" fill="rgb(2,2,2)"/>
<path d="M 587.48 465.34 L 604.28 464.67 L 622.12 437.50 L 567.56 437.24 L 516.61 437.00 L 602.66 437.00 L 606.03 432.25 C607.89,429.64 616.42,418.50 624.99,407.50 C649.99,375.42 653.21,370.99 652.62,369.45 C651.98,367.78 619.41,326.37 618.10,325.56 C617.82,325.39 617.20,325.78 616.46,326.53 L 620.00 321.74 C624.12,316.15 628.78,309.88 630.34,307.79 L 633.17 304.00 L 534.00 304.00 C575.39,304.00 600.00,303.64 600.00,303.04 C600.00,302.52 595.46,296.39 589.91,289.43 C580.77,277.98 579.88,276.49 580.42,273.64 C581.70,267.04 582.45,267.03 588.97,273.47 C595.27,279.71 596.13,279.46 593.55,272.15 C592.76,269.90 592.50,267.81 592.97,267.52 C593.45,267.22 596.91,267.43 600.67,267.97 C604.43,268.52 609.88,268.97 612.78,268.98 C617.95,269.00 618.24,269.16 627.28,277.14 C638.72,287.24 642.89,290.44 643.63,289.70 C643.94,289.39 642.06,286.84 639.45,284.05 C636.84,281.26 635.03,278.64 635.44,278.23 C635.84,277.83 647.81,289.31 662.03,303.75 C676.25,318.19 688.11,330.00 688.38,330.00 C688.65,330.00 709.47,305.59 734.64,275.75 C831.16,161.37 840.20,150.94 855.51,136.26 C863.68,128.43 870.51,122.18 870.71,122.37 C870.90,122.56 864.97,132.89 857.53,145.33 C844.35,167.35 842.12,171.77 845.68,168.87 C846.61,168.12 860.84,152.88 877.32,135.00 C893.79,117.12 907.95,101.82 908.78,101.00 C910.11,99.67 910.19,99.67 909.48,101.00 C909.04,101.82 902.19,112.10 894.25,123.83 C886.32,135.56 880.01,145.34 880.23,145.56 C880.45,145.78 882.60,143.94 885.02,141.48 C890.17,136.23 892.10,135.62 888.87,140.25 C887.63,142.04 849.13,193.30 803.33,254.18 C757.53,315.05 719.93,365.37 719.77,366.01 C719.53,367.06 741.81,394.78 743.00,394.90 C743.28,394.93 744.83,393.05 746.46,390.73 C747.62,389.07 755.47,378.22 765.83,363.91 C753.97,380.30 744.05,394.05 743.75,394.56 C743.40,395.14 746.51,399.87 750.66,405.06 C754.81,410.25 760.27,417.31 762.79,420.75 C765.32,424.19 767.86,426.98 768.44,426.95 C768.84,426.93 771.12,424.22 774.12,420.26 C771.15,424.46 769.69,426.65 769.47,427.21 C768.39,430.04 788.43,453.63 795.78,458.17 C797.75,459.39 798.83,460.56 798.18,460.77 C797.53,460.99 795.43,460.19 793.50,459.00 C789.34,456.43 789.07,457.10 792.57,461.27 L 795.15 464.33 L 784.00 475.48 L 779.25 473.64 C776.64,472.62 772.97,471.56 771.10,471.27 L 767.71 470.75 L 770.44 474.33 C774.25,479.33 773.17,480.39 764.95,479.70 C756.98,479.03 752.26,476.84 745.30,470.58 L 740.21 466.00 L 716.60 466.00 C729.49,466.00 739.98,465.66 739.97,465.25 C739.91,464.11 713.26,436.43 712.77,437.00 C712.76,437.01 712.75,437.03 712.73,437.05 L 713.06 436.59 L 700.80 424.29 C694.05,417.53 688.30,412.02 688.02,412.05 C687.73,412.07 685.25,415.10 682.50,418.77 C661.47,446.87 617.48,499.91 599.70,518.59 C590.28,528.49 579.44,537.77 578.45,536.78 C578.17,536.51 579.53,533.92 581.47,531.04 C586.33,523.83 585.97,522.32 580.15,525.41 C578.69,526.18 575.38,527.56 572.79,528.47 C570.21,529.39 564.81,532.88 560.79,536.24 C551.58,543.96 540.84,551.89 534.91,555.33 C529.89,558.25 526.00,558.80 526.00,556.59 C526.00,555.81 527.96,550.98 530.36,545.84 C532.75,540.70 536.01,533.58 537.61,530.02 C539.20,526.45 549.61,510.76 560.75,495.14 C571.89,479.53 581.00,466.58 581.00,466.38 C581.00,466.24 567.73,466.05 548.67,465.90 C566.27,465.79 581.43,465.58 587.48,465.34 ZM 985.52 544.99 L 985.76 513.81 L 986.00 483.51 L 986.00 513.76 C986.00,534.41 985.98,542.39 985.52,544.99 ZM 613.28 330.84 L 612.50 331.99 L 468.00 332.00 L 540.25 331.95 L 612.50 331.90 ZM 903.97 434.50 C886.86,410.58 873.72,392.25 863.71,378.33 C873.72,392.25 886.86,410.59 903.98,434.50 C945.14,492.03 972.15,529.53 981.42,542.00 L 981.70 542.38 C974.46,532.80 951.61,501.08 903.97,434.50 ZM 468.50 464.82 C468.78,465.12 470.20,465.35 473.34,465.52 L 468.50 465.50 ZM 801.41 314.85 L 809.29 304.00 L 809.43 304.00 L 805.88 308.75 C805.19,309.69 803.62,311.83 801.41,314.85 ZM 693.37 464.48 C693.36,464.51 693.35,464.53 693.34,464.55 C693.17,464.99 693.48,465.30 694.84,465.52 C693.66,465.42 693.00,465.32 693.00,465.21 C693.00,465.14 693.13,464.89 693.37,464.48 ZM 825.11 349.95 C829.91,343.28 833.86,338.21 834.22,338.30 C834.48,338.37 835.76,339.94 838.67,343.83 C835.76,339.94 834.48,338.38 834.22,338.31 C833.87,338.22 829.95,343.25 825.11,349.95 ZM 796.64 389.27 C797.98,387.44 799.28,385.66 800.50,384.01 C803.72,379.62 807.59,374.31 811.38,369.08 C807.53,374.40 803.64,379.74 800.51,384.00 C799.17,385.82 797.88,387.58 796.64,389.27 ZM 699.07 456.06 C697.33,458.56 695.80,460.79 694.75,462.34 C695.82,460.73 697.32,458.55 699.07,456.06 Z" fill="rgb(254,32,0)"/>
<path d="M 0.00 373.50 L 0.00 0.00 L 702.50 0.00 L 1405.00 0.00 L 1405.00 373.50 L 1405.00 747.00 L 702.50 747.00 L 0.00 747.00 L 0.00 373.50 ZM 802.02 628.49 C805.59,626.64 807.00,624.18 807.00,619.79 C807.00,613.67 804.69,611.85 792.80,608.55 C786.34,606.76 784.86,605.30 787.54,603.35 C790.59,601.11 795.73,601.67 798.19,604.50 C801.15,607.91 806.00,607.99 806.00,604.64 C806.00,596.28 788.83,593.02 781.80,600.04 C775.95,605.90 779.31,611.85 790.32,615.12 C794.27,616.29 798.12,617.83 798.89,618.55 C800.78,620.32 799.62,622.81 796.31,624.07 C792.76,625.42 789.39,624.52 786.55,621.46 C784.23,618.95 778.00,617.92 778.00,620.05 C778.00,622.60 781.17,626.83 784.20,628.33 C788.40,630.40 798.16,630.49 802.02,628.49 ZM 841.78 616.30 L 842.06 603.10 L 847.28 602.80 C852.14,602.52 852.52,602.31 852.82,599.75 L 853.13 597.00 L 838.50 597.00 L 823.87 597.00 L 824.18 599.75 C824.47,602.27 824.90,602.53 829.25,602.80 L 834.00 603.11 L 834.00 615.89 C834.00,622.92 834.32,628.99 834.71,629.38 C835.11,629.77 836.79,629.96 838.46,629.80 L 841.50 629.50 L 841.78 616.30 ZM 895.75 626.71 C898.44,624.02 898.51,623.66 898.83,610.48 L 899.15 597.00 L 895.08 597.00 L 891.00 597.00 L 891.00 609.48 C891.00,621.67 890.94,621.99 888.51,623.59 C885.83,625.34 882.77,625.01 879.50,622.63 C877.73,621.33 877.46,619.79 877.17,609.08 L 876.83 597.00 L 873.42 597.00 L 870.00 597.00 L 870.00 608.93 C870.00,622.65 870.70,625.22 875.23,628.05 C877.91,629.74 879.80,630.05 885.75,629.78 C892.09,629.50 893.34,629.12 895.75,626.71 ZM 940.96 628.40 C950.70,624.50 953.03,608.20 944.95,600.45 C941.96,597.59 941.54,597.49 930.44,597.16 L 919.00 596.83 L 919.00 612.75 C919.00,621.50 919.30,628.97 919.67,629.33 C921.04,630.71 936.94,630.01 940.96,628.40 ZM 975.77 613.25 L 976.05 597.00 L 972.02 597.00 L 968.00 597.00 L 968.00 612.83 C968.00,621.54 968.32,628.99 968.71,629.38 C969.11,629.77 970.79,629.96 972.46,629.80 L 975.50 629.50 L 975.77 613.25 ZM 1021.02 628.15 C1026.52,625.22 1029.00,620.75 1029.00,613.75 C1029.00,610.36 1028.31,606.35 1027.39,604.42 C1022.94,595.04 1006.48,593.32 998.40,601.40 C990.75,609.05 993.58,624.29 1003.45,628.59 C1007.98,630.57 1016.89,630.34 1021.02,628.15 ZM 1070.02 628.49 C1073.59,626.64 1075.00,624.18 1075.00,619.79 C1075.00,613.67 1072.69,611.85 1060.80,608.55 C1054.34,606.76 1052.86,605.30 1055.54,603.35 C1058.59,601.11 1063.73,601.67 1066.19,604.50 C1067.54,606.06 1069.42,607.00 1071.18,607.00 C1073.53,607.00 1074.00,606.58 1074.00,604.45 C1074.00,596.13 1056.85,593.00 1049.80,600.04 C1044.31,605.53 1047.34,611.83 1056.79,614.59 C1059.93,615.51 1063.62,616.58 1065.00,616.96 C1068.58,617.97 1068.42,622.03 1064.72,623.80 C1061.31,625.44 1055.55,623.89 1053.96,620.92 C1052.85,618.85 1046.00,618.10 1046.00,620.05 C1046.00,622.60 1049.17,626.83 1052.20,628.33 C1056.40,630.40 1066.16,630.49 1070.02,628.49 ZM 534.91 555.33 C540.84,551.89 551.58,543.96 560.79,536.24 C564.81,532.88 570.21,529.39 572.79,528.47 C575.38,527.56 578.69,526.18 580.15,525.41 C585.97,522.32 586.33,523.83 581.47,531.04 C579.53,533.92 578.17,536.51 578.45,536.78 C579.44,537.77 590.28,528.49 599.70,518.59 C617.48,499.91 661.47,446.87 682.50,418.77 C685.25,415.10 687.73,412.07 688.02,412.05 C688.30,412.02 694.05,417.53 700.80,424.29 L 713.06 436.59 L 703.03 450.51 C697.51,458.16 693.00,464.78 693.00,465.21 C693.00,465.65 703.62,466.00 716.60,466.00 L 740.21 466.00 L 745.30 470.58 C752.26,476.84 756.98,479.03 764.95,479.70 C773.17,480.39 774.25,479.33 770.44,474.33 L 767.71 470.75 L 771.10 471.27 C772.97,471.56 776.64,472.62 779.25,473.64 L 784.00 475.48 L 789.57 469.91 L 795.15 464.33 L 792.57 461.27 C789.07,457.10 789.34,456.43 793.50,459.00 C795.43,460.19 797.53,460.99 798.18,460.77 C798.83,460.56 797.75,459.39 795.78,458.17 C788.43,453.63 768.39,430.04 769.47,427.21 C770.02,425.78 778.82,413.53 800.51,384.00 C807.18,374.92 817.33,360.89 823.07,352.81 C828.80,344.73 833.82,338.20 834.22,338.31 C835.13,338.55 849.22,357.97 903.97,434.50 C960.12,512.97 981.83,543.02 984.14,545.47 C985.96,547.40 986.00,546.64 986.00,513.76 L 986.00 480.08 L 965.70 452.29 C940.46,417.73 878.19,331.53 867.07,315.75 L 858.79 304.00 L 834.04 304.00 L 809.29 304.00 L 779.36 345.25 C762.90,367.94 748.09,388.40 746.46,390.73 C744.83,393.05 743.28,394.93 743.00,394.90 C741.81,394.78 719.53,367.06 719.77,366.01 C719.93,365.37 757.53,315.05 803.33,254.18 C849.13,193.30 887.63,142.04 888.87,140.25 C892.10,135.62 890.17,136.23 885.02,141.48 C882.60,143.94 880.45,145.78 880.23,145.56 C880.01,145.34 886.32,135.56 894.25,123.83 C902.19,112.10 909.04,101.82 909.48,101.00 C910.19,99.67 910.11,99.67 908.78,101.00 C907.95,101.82 893.79,117.12 877.32,135.00 C860.84,152.88 846.61,168.12 845.68,168.87 C842.12,171.77 844.35,167.35 857.53,145.33 C864.97,132.89 870.90,122.56 870.71,122.37 C870.51,122.18 863.68,128.43 855.51,136.26 C840.20,150.94 831.16,161.37 734.64,275.75 C709.47,305.59 688.65,330.00 688.38,330.00 C688.11,330.00 676.25,318.19 662.03,303.75 C647.81,289.31 635.84,277.83 635.44,278.23 C635.03,278.64 636.84,281.26 639.45,284.05 C642.06,286.84 643.94,289.39 643.63,289.70 C642.89,290.44 638.72,287.24 627.28,277.14 C618.24,269.16 617.95,269.00 612.78,268.98 C609.88,268.97 604.43,268.52 600.67,267.97 C596.91,267.43 593.45,267.22 592.97,267.52 C592.50,267.81 592.76,269.90 593.55,272.15 C596.13,279.46 595.27,279.71 588.97,273.47 C582.45,267.03 581.70,267.04 580.42,273.64 C579.88,276.49 580.77,277.98 589.91,289.43 C595.46,296.39 600.00,302.52 600.00,303.04 C600.00,303.64 575.39,304.00 534.00,304.00 L 468.00 304.00 L 468.00 318.00 L 468.00 332.00 L 540.25 331.99 L 612.50 331.99 L 614.87 328.51 C616.17,326.59 617.63,325.27 618.10,325.56 C619.41,326.37 651.98,367.78 652.62,369.45 C653.21,370.99 649.99,375.42 624.99,407.50 C616.42,418.50 607.89,429.64 606.03,432.25 L 602.66 437.00 L 557.83 437.00 L 513.00 437.00 L 513.00 418.50 L 513.00 400.00 L 551.34 400.00 L 589.67 400.00 L 600.36 386.00 L 611.05 372.00 L 541.52 371.83 C503.29,371.74 471.21,371.63 470.25,371.58 C468.61,371.51 468.50,374.37 468.50,418.50 L 468.50 465.50 L 524.75 465.76 C555.69,465.90 581.00,466.18 581.00,466.38 C581.00,466.58 571.89,479.53 560.75,495.14 C549.61,510.76 539.20,526.45 537.61,530.02 C536.01,533.58 532.75,540.70 530.36,545.84 C527.96,550.98 526.00,555.81 526.00,556.59 C526.00,558.80 529.89,558.25 534.91,555.33 ZM 1080.00 514.19 L 1080.00 480.38 L 1056.58 447.70 C1043.69,429.73 1033.46,414.85 1033.83,414.64 C1034.20,414.43 1036.29,413.94 1038.48,413.54 C1046.22,412.14 1058.61,407.73 1067.17,403.34 C1094.07,389.51 1104.43,366.42 1093.58,344.47 C1085.08,327.26 1065.12,314.10 1037.13,307.23 L 1026.50 304.63 L 965.15 304.26 C925.26,304.02 903.92,304.23 904.15,304.87 C904.34,305.41 908.78,311.72 914.00,318.88 L 923.50 331.91 L 966.62 331.96 C1012.43,332.00 1020.69,332.64 1032.11,337.03 C1039.29,339.79 1046.35,345.05 1049.74,350.18 C1052.11,353.77 1052.50,355.36 1052.50,361.58 C1052.50,368.15 1052.22,369.16 1049.43,372.66 C1045.00,378.20 1038.00,382.58 1028.66,385.66 C1020.83,388.25 1019.39,388.38 992.83,388.93 L 965.16 389.50 L 972.43 399.50 C976.43,405.00 997.45,434.25 1019.14,464.50 C1057.94,518.61 1079.26,547.98 1079.75,547.99 C1079.89,548.00 1080.00,532.79 1080.00,514.19 ZM 422.00 425.50 L 422.00 304.00 L 399.51 304.00 L 377.03 304.00 L 376.76 337.75 L 376.50 371.50 L 323.00 371.50 L 269.50 371.50 L 269.24 337.75 L 268.97 304.00 L 246.48 304.00 L 223.99 304.00 L 224.24 384.75 L 224.50 465.50 L 246.50 465.50 L 268.50 465.50 L 268.76 432.75 L 269.03 400.00 L 323.01 400.00 L 377.00 400.00 L 377.00 451.08 L 377.00 502.16 L 398.74 524.58 C410.70,536.91 420.83,547.00 421.24,547.00 C421.66,547.00 422.00,492.33 422.00,425.50 ZM 927.00 613.50 L 927.00 603.00 L 932.43 603.00 C940.43,603.00 942.80,606.25 941.72,615.77 C941.04,621.84 938.46,624.00 931.89,624.00 L 927.00 624.00 L 927.00 613.50 ZM 1007.31 623.05 C1003.18,620.53 1002.00,618.18 1002.00,612.49 C1002.00,599.73 1019.19,597.83 1021.53,610.32 C1022.48,615.39 1020.42,620.77 1016.65,623.07 C1012.70,625.48 1011.29,625.48 1007.31,623.05 Z" fill="rgb(254,254,254)"/>
</g>
</svg>