<svg width="697" height="396" viewBox="0 0 697 396" fill="none" xmlns="http://www.w3.org/2000/svg">
<path d="M296.172 149.5H269.67C268.086 149.5 267.131 151.253 267.989 152.584L309.827 217.457C310.239 218.096 310.253 218.913 309.863 219.566L229.778 353.673C228.733 355.424 230.671 357.433 232.458 356.451L271.106 335.217C271.365 335.074 271.59 334.875 271.764 334.635L336.496 245.081C337.259 244.025 338.812 243.969 339.649 244.968L365.9 276.285C366.281 276.738 366.842 277 367.433 277H406.238C407.933 277 408.859 275.025 407.777 273.722L357.448 213.141C356.885 212.463 356.831 211.497 357.316 210.762L465.663 46.3727C466.914 44.4759 464.536 42.2943 462.753 43.7029L446.698 56.3921C445.144 57.6201 442.942 56.0849 443.556 54.2022L446.027 46.6361C446.72 44.5141 443.942 43.0238 442.557 44.7743L333.394 182.738C332.652 183.676 331.257 183.757 330.411 182.911L297.586 150.086C297.211 149.711 296.702 149.5 296.172 149.5Z" fill="white"/>
</svg>
